<svg xmlns="http://www.w3.org/2000/svg" version="1.1" xmlns:xlink="http://www.w3.org/1999/xlink" xmlns:svgjs="http://svgjs.dev/svgjs" width="1500" height="1500" viewBox="0 0 1500 1500"><rect width="1500" height="1500" fill="#000000"></rect><g transform="matrix(0.6666666666666666,0,0,0.6666666666666666,249.39393939393938,604.5363015932081)"><svg viewBox="0 0 396 115" data-background-color="#89939e" preserveAspectRatio="xMidYMid meet" height="435" width="1500" xmlns="http://www.w3.org/2000/svg" xmlns:xlink="http://www.w3.org/1999/xlink"><g id="tight-bounds" transform="matrix(1,0,0,1,0.2400000000000091,0.18388040269334738)"><svg viewBox="0 0 395.52 114.6322391946133" height="114.6322391946133" width="395.52"><g><svg viewBox="0 0 605.4522786508517 175.47620961576683" height="114.6322391946133" width="395.52"><g transform="matrix(1,0,0,1,209.93227865085163,51.24978215428372)"><svg viewBox="0 0 395.52 72.97664530719939" height="72.97664530719939" width="395.52"><g id="textblocktransform"><svg viewBox="0 0 395.52 72.97664530719939" height="72.97664530719939" width="395.52" id="textblock"><g><svg viewBox="0 0 395.52 72.97664530719939" height="72.97664530719939" width="395.52"><g transform="matrix(1,0,0,1,0,0)"><svg width="395.52" viewBox="3.9 -36.8 264.43 48.95" height="72.97664530719939" data-palette-color="#ffffff"><g class="wordmark-text-0" data-fill-palette-color="primary" id="text-0"><path d="M3.9 0L3.9-36.75 13.25-36.75Q21.15-36.75 23.75-34.1 26.35-31.45 26.35-27.7L26.35-27.7Q26.35-25.2 25.25-22.98 24.15-20.75 21.75-19.65L21.75-19.65Q25.3-18.75 26.98-16.5 28.65-14.25 28.65-11.2L28.65-11.2Q28.65-8 27.65-5.6 26.65-3.2 23.5-1.6 20.35 0 14.4 0L14.4 0 3.9 0ZM9.4-21.15L14.15-21.15Q17.7-21.15 19.2-22.88 20.7-24.6 20.7-27.25L20.7-27.25Q20.7-32 13.9-32L13.9-32 9.4-32 9.4-21.15ZM9.4-4.7L15.15-4.7Q19.7-4.7 21.28-6.53 22.85-8.35 22.85-11.15L22.85-11.15Q22.85-13.8 21.05-15.25 19.25-16.7 15.6-16.7L15.6-16.7 9.4-16.7 9.4-4.7ZM42.8 0.5Q38.05 0.5 36.27-2.3 34.5-5.1 34.5-10.1L34.5-10.1 34.5-22.95 39.9-22.95 39.9-11.45Q39.9-8.6 40.22-7.03 40.55-5.45 41.52-4.7 42.5-3.95 44.45-3.95L44.45-3.95Q45.85-3.95 47.15-4.75 48.45-5.55 49.27-6.93 50.1-8.3 50.1-9.95L50.1-9.95 50.1-22.95 55.45-22.95 55.45 0 51.05 0 50.45-3.35Q49.2-1.4 47.32-0.45 45.45 0.5 42.8 0.5L42.8 0.5ZM72.8 0.5Q69.69 0.5 67.07-0.98 64.44-2.45 62.87-5.18 61.3-7.9 61.3-11.55L61.3-11.55Q61.3-17 64.34-20.28 67.39-23.55 72.59-23.55L72.59-23.55Q75.5-23.55 77.89-22.13 80.3-20.7 81.14-18.7L81.14-18.7 80.89-22.6 80.89-36.75 86.19-36.75 86.19 0 81.05 0 80.94-4.05Q80.09-2.25 77.84-0.88 75.59 0.5 72.8 0.5L72.8 0.5ZM73.69-4.05Q76.55-4.05 78.5-6.03 80.44-8 80.44-11.2L80.44-11.2 80.44-11.55Q80.44-13.7 79.55-15.4 78.64-17.1 77.09-18.05 75.55-19 73.69-19L73.69-19Q70.5-19 68.75-16.93 67-14.85 67-11.55L67-11.55Q67-8.2 68.72-6.13 70.44-4.05 73.69-4.05L73.69-4.05ZM104.49 12Q101.94 12 99.47 11.3 96.99 10.6 95.94 10L95.94 10 97.14 5Q100.44 7.15 104.34 7.15L104.34 7.15Q107.34 7.15 109.39 5.7 111.44 4.25 111.49 0.05L111.49 0.05 111.49-4.05Q110.44-2.1 108.09-0.8 105.74 0.5 102.89 0.5L102.89 0.5Q99.89 0.5 97.39-0.98 94.89-2.45 93.44-5.2 91.99-7.95 91.99-11.6L91.99-11.6Q91.99-15.1 93.37-17.82 94.74-20.55 97.29-22.05 99.84-23.55 103.24-23.55L103.24-23.55Q105.24-23.55 106.99-22.85 108.74-22.15 109.97-21.13 111.19-20.1 111.59-19.1L111.59-19.1 111.69-22.95 116.79-22.95 116.79-0.15Q116.79 5.7 113.79 8.85 110.79 12 104.49 12L104.49 12ZM104.39-4.05Q107.24-4.05 109.19-6.03 111.14-8 111.14-11.2L111.14-11.2 111.14-11.55Q111.14-13.7 110.24-15.4 109.34-17.1 107.79-18.05 106.24-19 104.39-19L104.39-19Q101.19-19 99.44-16.93 97.69-14.85 97.69-11.55L97.69-11.55Q97.69-8.2 99.42-6.13 101.14-4.05 104.39-4.05L104.39-4.05ZM134.54 0.5Q130.44 0.5 127.69-1.13 124.94-2.75 123.64-5.48 122.34-8.2 122.34-11.45L122.34-11.45Q122.34-15.1 123.87-17.85 125.39-20.6 128.09-22.08 130.79-23.55 134.19-23.55L134.19-23.55Q139.49-23.55 142.07-20.63 144.64-17.7 144.64-12.4L144.64-12.4Q144.64-11.05 144.49-9.6L144.49-9.6 127.99-9.6Q128.54-6.55 130.17-5.2 131.79-3.85 134.69-3.85L134.69-3.85Q137.09-3.85 138.64-4.25 140.19-4.65 141.49-5.35L141.49-5.35 143.14-1.5Q141.89-0.7 139.74-0.1 137.59 0.5 134.54 0.5L134.54 0.5ZM127.99-13.35L139.39-13.35Q139.44-16.45 138.04-17.73 136.64-19 134.04-19L134.04-19Q128.79-19 127.99-13.35L127.99-13.35ZM152.29 0L152.29-18.55 148.24-18.55 148.24-22.95 152.29-22.95 152.29-32.3 157.74-33.5 157.74-22.95 163.04-22.95 163.04-18.55 157.74-18.55 157.74 0 152.29 0Z" fill="#ffffff" data-fill-palette-color="primary"></path><path d="M192.09-36.8L192.64-36.8 210.34 0 203.89 0 200.74-7.2 183.89-7.2 180.74 0 174.49 0 192.09-36.8ZM192.34-26.15L190.14-21.15 186.14-12.25 198.54-12.25 194.59-21.1 192.44-26.15 192.34-26.15ZM213.19 12.15L213.19-22.95 218.39-22.95 218.39-18.7Q221.14-23.55 226.99-23.55L226.99-23.55Q231.84-23.55 234.84-20.48 237.84-17.4 237.84-11.6L237.84-11.6Q237.84-8 236.36-5.25 234.88-2.5 232.36-1 229.84 0.5 226.74 0.5L226.74 0.5Q223.84 0.5 221.71-0.53 219.59-1.55 218.39-3.45L218.39-3.45 218.44 12.15 213.19 12.15ZM225.49-4.05Q228.74-4.05 230.49-6.13 232.24-8.2 232.24-11.45L232.24-11.45Q232.24-14.85 230.51-16.88 228.79-18.9 225.49-18.9L225.49-18.9Q223.69-18.9 222.11-18.03 220.54-17.15 219.61-15.53 218.69-13.9 218.69-11.75L218.69-11.75 218.69-11.4Q218.69-9.25 219.61-7.58 220.54-5.9 222.09-4.98 223.64-4.05 225.49-4.05L225.49-4.05ZM243.68 12.15L243.68-22.95 248.88-22.95 248.88-18.7Q251.63-23.55 257.48-23.55L257.48-23.55Q262.33-23.55 265.33-20.48 268.33-17.4 268.33-11.6L268.33-11.6Q268.33-8 266.86-5.25 265.38-2.5 262.86-1 260.33 0.5 257.23 0.5L257.23 0.5Q254.33 0.5 252.21-0.53 250.08-1.55 248.88-3.45L248.88-3.45 248.93 12.15 243.68 12.15ZM255.98-4.05Q259.23-4.05 260.98-6.13 262.73-8.2 262.73-11.45L262.73-11.45Q262.73-14.85 261.01-16.88 259.28-18.9 255.98-18.9L255.98-18.9Q254.18-18.9 252.61-18.03 251.03-17.15 250.11-15.53 249.18-13.9 249.18-11.75L249.18-11.75 249.18-11.4Q249.18-9.25 250.11-7.58 251.03-5.9 252.58-4.98 254.13-4.05 255.98-4.05L255.98-4.05Z" fill="#ffffff" data-fill-palette-color="primary"></path></g></svg></g></svg></g></svg></g></svg></g><g><svg viewBox="0 0 175.47620961576683 175.47620961576683" height="175.47620961576683" width="175.47620961576683"><g><svg></svg></g><g id="icon-0"><svg viewBox="0 0 175.47620961576683 175.47620961576683" height="175.47620961576683" width="175.47620961576683"><g><path d="M0 87.738c0-48.456 39.282-87.738 87.738-87.738 48.456 0 87.738 39.282 87.738 87.738 0 48.456-39.282 87.738-87.738 87.738-48.456 0-87.738-39.282-87.738-87.738zM87.738 168.895c44.822 0 81.157-36.335 81.157-81.157 0-44.822-36.335-81.157-81.157-81.157-44.822 0-81.157 36.335-81.157 81.157 0 44.822 36.335 81.157 81.157 81.157z" data-fill-palette-color="accent" fill="#ffffff" stroke="transparent"></path></g><g transform="matrix(1,0,0,1,46.48235942298315,38.99339647224394)"><svg viewBox="0 0 82.51149076980053 97.48941667127896" height="97.48941667127896" width="82.51149076980053"><g><svg xmlns="http://www.w3.org/2000/svg" xmlns:xlink="http://www.w3.org/1999/xlink" version="1.1" x="0" y="0" viewBox="6.427727075531501 1.8 51.12035965196397 60.400000000000006" enable-background="new 0 0 64 64" xml:space="preserve" height="97.48941667127896" width="82.51149076980053" class="icon-dxe-0" data-fill-palette-color="accent" id="dxe-0"><g fill="#ffffff" data-fill-palette-color="accent"><path fill="#ffffff" d="M35.3 37C34.7 36.6 34.2 36.4 33.6 36.1 33.3 36 33.1 35.8 32.8 35.7 32.5 35.5 32.2 35.4 31.9 35.2 31.2 34.9 30.7 34.6 30.2 34.3 29.2 33.7 28.9 32.3 29.3 31 29.7 29.9 30.5 29.4 31.8 29.4H32C32.9 29.4 34 29.8 34.5 31.2 34.5 31.3 34.6 31.5 34.6 31.6 34.8 32.3 35.4 32.7 36.1 32.5S37.2 31.7 37 31C37 30.8 36.9 30.6 36.8 30.4 36.2 28.7 34.9 27.5 33.2 27.1V25.6C33.2 24.9 32.7 24.4 32 24.4S30.8 24.9 30.8 25.6V27C28.3 27.4 27.3 29.1 27 30.2 26.2 32.6 27 35.1 28.9 36.4 29.6 36.8 30.3 37.2 30.9 37.5 31.2 37.6 31.5 37.8 31.7 37.9 32 38.1 32.3 38.2 32.6 38.4 33.1 38.6 33.6 38.9 34 39.2 35 39.9 35.4 41.2 35 42.5 34.6 43.9 33.4 44.2 32.4 44.3H31.5C30.1 44.2 29.1 43.3 28.8 42 28.6 41.3 28 40.9 27.3 41.1S26.2 41.9 26.4 42.6C26.9 44.8 28.6 46.3 30.7 46.7V48.1C30.7 48.8 31.2 49.3 31.9 49.3S33.1 48.8 33.1 48.1V46.7C35.1 46.4 36.6 45.2 37.2 43.3 38.1 40.7 37.3 38.3 35.3 37" data-fill-palette-color="accent"></path><path fill="#ffffff" d="M53.2 20C53.7 19.2 54.1 18.2 54.1 17.2 54.1 14.5 51.9 12.2 49.1 12.2 47.8 12.2 46.6 12.7 45.7 13.5 48.6 15.1 51.2 17.4 53.2 20" data-fill-palette-color="accent"></path><path fill="#ffffff" d="M17.9 13.4C17 12.6 15.8 12.1 14.5 12.1 11.7 12.1 9.5 14.3 9.5 17.1 9.5 18.1 9.8 19.1 10.4 19.9 12.5 17.4 15 15.1 17.9 13.4" data-fill-palette-color="accent"></path><path fill="#ffffff" d="M57.1 32.3C55 21.4 47.3 13.7 36.4 11.6 35.5 11.4 35.3 11.3 35.3 11.3 35.2 11.2 35.3 10.8 35.3 10.4H38.2C40.4 10.3 41 8.8 41.1 7.9 41.2 6.7 41.2 5.5 41.1 4.2 41 2.8 40 1.8 38.7 1.8H25.4C23.8 1.8 22.7 3 22.6 4.6V6.9C22.6 9.2 23.8 10.4 26.1 10.4H29.2V11.2C29.1 11.2 28.9 11.3 28.2 11.4 28 11.4 27.8 11.5 27.6 11.5 27.5 11.5 27.3 11.6 27.2 11.6 20.7 12.8 14.8 16.7 10.9 22.4S5.6 34.9 6.9 41.4C9.4 53.6 19.7 62.2 32 62.2 33.8 62.2 35.7 62 37.5 61.6 50.7 58.9 59.7 45.4 57.1 32.3M37 59.3C35.4 59.6 33.7 59.8 32 59.8 20.8 59.8 11.5 52 9.3 40.9 8.1 35 9.4 28.9 12.9 23.7 16.4 18.6 21.7 15 27.6 13.9 27.8 13.9 27.9 13.8 28.1 13.8 28.2 13.8 28.4 13.7 28.5 13.7 31.4 13.3 31.7 12.1 31.5 9.6L31.3 8H26.1C25.1 8 25 7.8 25 6.9V4.8C25 4.3 25.2 4.3 25.4 4.3H38.8V4.4C38.9 5.5 38.9 6.6 38.8 7.6 38.8 7.8 38.7 7.9 38.7 7.9S38.6 8 38.2 8H33.2L33 9.7C32.8 12.3 33.2 13.4 36 13.9 45.9 15.8 52.9 22.9 54.8 32.7 57.1 44.6 48.9 56.8 37 59.3" data-fill-palette-color="accent"></path><path fill="#ffffff" d="M32.1 17.7H32C21.5 17.7 13 26.1 13 36.5 13 47 21.4 55.6 31.9 55.7H32C37 55.7 41.7 53.7 45.3 50.2 49 46.6 51 41.9 51 36.9 51 31.8 49.1 27 45.5 23.4 42 19.7 37.2 17.7 32.1 17.7M43.7 48.4C40.6 51.5 36.4 53.2 32.1 53.2H32C22.9 53.1 15.5 45.6 15.5 36.4 15.5 27.4 23 20 32.1 20H32.2C36.7 20 40.8 21.8 43.9 24.9S48.7 32.2 48.7 36.7C48.5 41.2 46.8 45.3 43.7 48.4" data-fill-palette-color="accent"></path></g></svg></g></svg></g></svg></g></svg></g></svg></g><defs></defs></svg><rect width="395.52" height="114.6322391946133" fill="none" stroke="none" visibility="hidden"></rect></g></svg></g></svg>